<svg width="32" height="32" viewBox="0 0 32 32" fill="none" xmlns="http://www.w3.org/2000/svg">
<path d="M17.939 7.4575C17.939 10.3672 19.541 11.8298 20.921 13.2202C22.241 14.5498 23.4976 15.8163 23.4976 18.2286C23.4976 22.1782 20.2807 25 16.1561 25C12.0307 25 8.49756 22.1921 8.49756 18.2286C8.49756 16.555 9.32213 14.9364 10.6481 14.2076C10.9096 14.0639 11.2241 14.2133 11.3364 14.4817C12.1944 16.5328 13.2521 16.4967 13.8007 15.9714C14.1333 15.6538 14.2036 15.0554 13.7973 14.279C11.7358 10.3294 15.3941 7.48376 17.3973 7.01182C17.6853 6.94451 17.9244 7.17433 17.939 7.4575ZM16.1561 23.7688C19.6353 23.7688 22.2118 21.4378 22.2118 18.2286C22.2118 16.3104 21.275 15.3649 19.9164 13.995L19.8984 13.9761C18.6641 12.731 17.2078 11.2257 16.7707 8.59428C16.1235 8.95857 15.565 9.45109 15.1327 10.0388C14.4581 10.9778 14.1496 12.2 14.9476 13.7282C15.4644 14.7173 15.6136 15.9772 14.7101 16.8423C14.147 17.3815 13.1998 17.7451 12.1764 17.3233C11.5318 17.0573 11.0167 16.5394 10.601 15.8541C10.115 16.4335 9.78327 17.2822 9.78327 18.2286C9.78327 21.3861 12.6016 23.7688 16.1561 23.7688Z" fill="#FFC700"/>
<path d="M16.1561 23.7688C19.6353 23.7688 22.2118 21.4378 22.2118 18.2286C22.2118 16.3104 21.275 15.3649 19.9164 13.995L19.8984 13.9761C18.6641 12.731 17.2078 11.2257 16.7707 8.59428C16.1235 8.95857 15.565 9.45109 15.1327 10.0388C14.4581 10.9778 14.1496 12.2 14.9476 13.7282C15.4644 14.7173 15.6136 15.9772 14.7101 16.8423C14.147 17.3815 13.1998 17.7451 12.1764 17.3233C11.5318 17.0573 11.0167 16.5394 10.601 15.8541C10.115 16.4335 9.78327 17.2822 9.78327 18.2286C9.78327 21.3861 12.6016 23.7688 16.1561 23.7688Z" fill="#FFC700"/>
<rect x="0.53125" y="0.53125" width="30.9375" height="30.9375" rx="15.4688" stroke="#FFC700" stroke-width="1.0625"/>
</svg>
