<svg width="33" height="32" viewBox="0 0 33 32" fill="none" xmlns="http://www.w3.org/2000/svg">
<path d="M23.8559 9.81086C23.4405 9.39528 22.9473 9.06561 22.4045 8.84069C21.8617 8.61577 21.2798 8.5 20.6922 8.5C20.1047 8.5 19.5228 8.61577 18.98 8.84069C18.4372 9.06561 17.944 9.39528 17.5286 9.81086L16.6665 10.6729L15.8045 9.81086C14.9654 8.97181 13.8274 8.50043 12.6408 8.50043C11.4542 8.50043 10.3162 8.97181 9.47717 9.81086C8.63812 10.6499 8.16675 11.7879 8.16675 12.9745C8.16675 14.1611 8.63812 15.2991 9.47717 16.1381L10.3392 17.0002L16.6665 23.3275L22.9938 17.0002L23.8559 16.1381C24.2715 15.7228 24.6011 15.2296 24.8261 14.6867C25.051 14.1439 25.1667 13.5621 25.1667 12.9745C25.1667 12.3869 25.051 11.8051 24.8261 11.2623C24.6011 10.7194 24.2715 10.2262 23.8559 9.81086Z" stroke="#CCCCCC" stroke-width="2" stroke-linecap="round" stroke-linejoin="round"/>
</svg>
