<svg width="21" height="32" viewBox="0 0 21 24" fill="none" xmlns="http://www.w3.org/2000/svg">
<path fill-rule="evenodd" clip-rule="evenodd" d="M13.2626 8C12.9194 9.16519 11.9933 10 10.9048 10C9.81631 10 8.89028 9.16519 8.54708 8H5.90696H3.40483V6H8.54708C8.89028 4.83481 9.81631 4 10.9048 4C11.9933 4 12.9194 4.83481 13.2626 6H18.4048V8H15.907H13.2626ZM15.907 8L17.034 10.165L17.1299 10.3492L19.0304 14L19.7436 15.37L20.0715 16C20.0715 18.7614 18.206 21 15.9048 21C13.6036 21 11.7382 18.7614 11.7382 16L12.0662 15.3705L12.7804 14L14.6834 10.348L14.779 10.1646L15.907 8ZM5.90696 8L7.03401 10.165L7.12985 10.3492L9.03036 14L9.74356 15.37L10.0715 16C10.0715 18.7614 8.20601 21 5.90483 21C3.60364 21 1.73816 18.7614 1.73816 16L2.06617 15.3705L2.78036 14L4.68344 10.348L4.779 10.1646L5.90696 8ZM8.02347 15L7.03664 13.1339L6.25611 11.6578L5.90624 10.9962L5.55592 11.657L4.7736 13.1327L3.78365 15H8.02347ZM13.7837 15L14.7736 13.1327L15.5559 11.657L15.9062 10.9962L16.2561 11.6578L17.0366 13.1339L18.0235 15H13.7837Z" fill="#CCCCCC"/>
</svg>
